<?xml version="1.0" encoding="utf-8"?>
<!-- Generator: Adobe Illustrator 18.0.0, SVG Export Plug-In . SVG Version: 6.00 Build 0)  -->
<!DOCTYPE svg PUBLIC "-//W3C//DTD SVG 1.1//EN" "http://www.w3.org/Graphics/SVG/1.1/DTD/svg11.dtd">
<svg version="1.1" id="Layer_2" xmlns="http://www.w3.org/2000/svg" xmlns:xlink="http://www.w3.org/1999/xlink" x="0px" y="0px"
	 viewBox="0 0 257.8 248.1" enable-background="new 0 0 257.8 248.1" xml:space="preserve">
<g>
	<defs>
		<rect id="SVGID_1_" x="0" y="0" width="257.8" height="248.1"/>
	</defs>
	<clipPath id="SVGID_2_">
		<use xlink:href="#SVGID_1_"  overflow="visible"/>
	</clipPath>
	<rect x="65.7" y="-1.6" clip-path="url(#SVGID_2_)" fill="#FF6F4D" width="61.7" height="249.9"/>
	<rect x="1.6" y="-1.2" clip-path="url(#SVGID_2_)" fill="#FF6F4D" width="61.7" height="249.9"/>
	<g clip-path="url(#SVGID_2_)">
		<defs>
			<rect id="SVGID_3_" x="65.7" y="-0.6" width="61.7" height="249.9"/>
		</defs>
		<clipPath id="SVGID_4_">
			<use xlink:href="#SVGID_3_"  overflow="visible"/>
		</clipPath>
		<polygon clip-path="url(#SVGID_4_)" fill="#FFFFFF" stroke="#FFFFFF" stroke-miterlimit="10" points="65.7,14.6 97,-0.6 
			128.1,14.8 128.1,33.9 95.6,17.2 65.6,31.5 		"/>
		<polygon clip-path="url(#SVGID_4_)" fill="#FFFFFF" stroke="#FFFFFF" stroke-miterlimit="10" points="65.6,139.8 96.6,124.7 
			127.6,140.1 127.6,159.1 96.5,139.3 65.6,157.8 		"/>
		<polyline clip-path="url(#SVGID_4_)" fill="none" stroke="#FFFFFF" stroke-width="2" stroke-miterlimit="10" points="64.8,47.9 
			95.4,30.9 127.8,48.5 		"/>
		<polyline clip-path="url(#SVGID_4_)" fill="none" stroke="#FFFFFF" stroke-width="2" stroke-miterlimit="10" points="64.8,63.3 
			95.4,46.3 127.8,64.2 		"/>
		<polyline clip-path="url(#SVGID_4_)" fill="none" stroke="#FFFFFF" stroke-width="2" stroke-miterlimit="10" points="64.7,78.9 
			96,63 127.8,79.9 		"/>
		<polyline clip-path="url(#SVGID_4_)" fill="none" stroke="#FFFFFF" stroke-width="2" stroke-miterlimit="10" points="65.4,95.7 
			96,78.7 127.8,95.7 		"/>
		<polyline clip-path="url(#SVGID_4_)" fill="none" stroke="#FFFFFF" stroke-width="2" stroke-miterlimit="10" points="65.4,111.4 
			96,94.4 127.8,111.4 		"/>
		<polyline clip-path="url(#SVGID_4_)" fill="none" stroke="#FFFFFF" stroke-width="2" stroke-miterlimit="10" points="65.4,125.9 
			96,109 127.8,125.9 		"/>
		<polyline clip-path="url(#SVGID_4_)" fill="none" stroke="#FFFFFF" stroke-width="2" stroke-miterlimit="10" points="65.2,172.9 
			96.6,155.9 128.4,172.8 		"/>
		<polyline clip-path="url(#SVGID_4_)" fill="none" stroke="#FFFFFF" stroke-width="2" stroke-miterlimit="10" points="64.8,188.9 
			95.4,172 129.6,190.1 		"/>
		<polyline clip-path="url(#SVGID_4_)" fill="none" stroke="#FFFFFF" stroke-width="2" stroke-miterlimit="10" points="65.4,203.4 
			96,186.4 127.8,203.4 		"/>
		<polyline clip-path="url(#SVGID_4_)" fill="none" stroke="#FFFFFF" stroke-width="2" stroke-miterlimit="10" points="65.2,217.5 
			96,202.2 127.8,219.1 		"/>
		<polyline clip-path="url(#SVGID_4_)" fill="none" stroke="#FFFFFF" stroke-width="2" stroke-miterlimit="10" points="65.5,233.5 
			96,217.9 127.8,234.8 		"/>
		<polyline clip-path="url(#SVGID_4_)" fill="none" stroke="#FFFFFF" stroke-width="2" stroke-miterlimit="10" points="65.4,250 
			96,233 127.8,250 		"/>
		<use xlink:href="#SVGID_3_"  overflow="visible" fill="none" stroke="#FFFFFF" stroke-miterlimit="10"/>
	</g>
	<g clip-path="url(#SVGID_2_)">
		<defs>
			<rect id="SVGID_5_" x="1.6" y="-1.2" width="61.7" height="249.9"/>
		</defs>
		<clipPath id="SVGID_6_">
			<use xlink:href="#SVGID_5_"  overflow="visible"/>
		</clipPath>
		<polygon clip-path="url(#SVGID_6_)" fill="#FFFFFF" stroke="#FFFFFF" stroke-miterlimit="10" points="1.6,90.8 32.8,75.7 64,91 
			64,110.1 32.5,92.5 1.6,108.7 		"/>
		<polygon clip-path="url(#SVGID_6_)" fill="#FFFFFF" stroke="#FFFFFF" stroke-miterlimit="10" points="1,215.5 32.3,200.3 
			63.6,215.7 63.6,234.7 32,217.3 1,233.4 		"/>
		<polyline clip-path="url(#SVGID_6_)" fill="none" stroke="#FFFFFF" stroke-width="2" stroke-miterlimit="10" points="1.5,15.8 
			32.9,-1.2 65.6,15.8 		"/>
		<polyline clip-path="url(#SVGID_6_)" fill="none" stroke="#FFFFFF" stroke-width="2" stroke-miterlimit="10" points="1.5,31.5 
			32.9,14.6 65.6,31.5 		"/>
		<polyline clip-path="url(#SVGID_6_)" fill="none" stroke="#FFFFFF" stroke-width="2" stroke-miterlimit="10" points="1.5,47.2 
			32.9,30.3 65.6,47.2 		"/>
		<polyline clip-path="url(#SVGID_6_)" fill="none" stroke="#FFFFFF" stroke-width="2" stroke-miterlimit="10" points="1.5,63 
			32.9,46 65.6,63 		"/>
		<polyline clip-path="url(#SVGID_6_)" fill="none" stroke="#FFFFFF" stroke-width="2" stroke-miterlimit="10" points="1.5,78.7 
			32.9,61.8 65.6,78.7 		"/>
		<polyline clip-path="url(#SVGID_6_)" fill="none" stroke="#FFFFFF" stroke-width="2" stroke-miterlimit="10" points="1.5,125.3 
			32.9,108.4 65.6,125.3 		"/>
		<polyline clip-path="url(#SVGID_6_)" fill="none" stroke="#FFFFFF" stroke-width="2" stroke-miterlimit="10" points="1.5,141 
			32.9,124.1 65.6,141 		"/>
		<polyline clip-path="url(#SVGID_6_)" fill="none" stroke="#FFFFFF" stroke-width="2" stroke-miterlimit="10" points="1.5,156.8 
			32.9,139.8 65.6,156.8 		"/>
		<polyline clip-path="url(#SVGID_6_)" fill="none" stroke="#FFFFFF" stroke-width="2" stroke-miterlimit="10" points="1.5,172.5 
			32.9,155.6 65.6,172.5 		"/>
		<polyline clip-path="url(#SVGID_6_)" fill="none" stroke="#FFFFFF" stroke-width="2" stroke-miterlimit="10" points="1.5,188.2 
			32.9,171.3 65.6,188.2 		"/>
		<polyline clip-path="url(#SVGID_6_)" fill="none" stroke="#FFFFFF" stroke-width="2" stroke-miterlimit="10" points="1.5,203.4 
			32.9,186.4 65.6,203.4 		"/>
		<polyline clip-path="url(#SVGID_6_)" fill="none" stroke="#FFFFFF" stroke-width="2" stroke-miterlimit="10" points="1.5,249.9 
			32.9,233 65.6,249.9 		"/>
		<use xlink:href="#SVGID_5_"  overflow="visible" fill="none" stroke="#FFFFFF" stroke-miterlimit="10"/>
	</g>
	<rect x="194.4" y="-1.6" clip-path="url(#SVGID_2_)" fill="#FF6F4D" width="61.7" height="249.9"/>
	<rect x="130.3" y="-1.2" clip-path="url(#SVGID_2_)" fill="#FF6F4D" width="61.7" height="249.9"/>
	<g clip-path="url(#SVGID_2_)">
		<defs>
			<rect id="SVGID_7_" x="194.4" y="-0.6" width="61.7" height="249.9"/>
		</defs>
		<clipPath id="SVGID_8_">
			<use xlink:href="#SVGID_7_"  overflow="visible"/>
		</clipPath>
		<polygon clip-path="url(#SVGID_8_)" fill="#FFFFFF" stroke="#FFFFFF" stroke-miterlimit="10" points="194.4,14.6 225.6,-0.6 
			256.8,14.8 256.8,33.9 224.2,17.2 194.3,31.5 		"/>
		<polygon clip-path="url(#SVGID_8_)" fill="#FFFFFF" stroke="#FFFFFF" stroke-miterlimit="10" points="194.3,139.8 225.3,124.7 
			256.2,140.1 256.2,159.1 225.1,139.3 194.3,157.8 		"/>
		<polyline clip-path="url(#SVGID_8_)" fill="none" stroke="#FFFFFF" stroke-width="2" stroke-miterlimit="10" points="193.5,47.9 
			224.1,30.9 256.4,48.5 		"/>
		<polyline clip-path="url(#SVGID_8_)" fill="none" stroke="#FFFFFF" stroke-width="2" stroke-miterlimit="10" points="193.5,63.3 
			224.1,46.3 256.4,64.2 		"/>
		<polyline clip-path="url(#SVGID_8_)" fill="none" stroke="#FFFFFF" stroke-width="2" stroke-miterlimit="10" points="193.4,78.9 
			224.7,63 256.4,79.9 		"/>
		<polyline clip-path="url(#SVGID_8_)" fill="none" stroke="#FFFFFF" stroke-width="2" stroke-miterlimit="10" points="194.1,95.7 
			224.7,78.7 256.4,95.7 		"/>
		<polyline clip-path="url(#SVGID_8_)" fill="none" stroke="#FFFFFF" stroke-width="2" stroke-miterlimit="10" points="194.1,111.4 
			224.7,94.4 256.4,111.4 		"/>
		<polyline clip-path="url(#SVGID_8_)" fill="none" stroke="#FFFFFF" stroke-width="2" stroke-miterlimit="10" points="194.1,125.9 
			224.7,109 256.4,125.9 		"/>
		<polyline clip-path="url(#SVGID_8_)" fill="none" stroke="#FFFFFF" stroke-width="2" stroke-miterlimit="10" points="193.8,172.9 
			225.3,155.9 257,172.8 		"/>
		<polyline clip-path="url(#SVGID_8_)" fill="none" stroke="#FFFFFF" stroke-width="2" stroke-miterlimit="10" points="193.5,188.9 
			224.1,172 258.3,190.1 		"/>
		<polyline clip-path="url(#SVGID_8_)" fill="none" stroke="#FFFFFF" stroke-width="2" stroke-miterlimit="10" points="194.1,203.4 
			224.7,186.4 256.4,203.4 		"/>
		<polyline clip-path="url(#SVGID_8_)" fill="none" stroke="#FFFFFF" stroke-width="2" stroke-miterlimit="10" points="193.8,217.5 
			224.7,202.2 256.4,219.1 		"/>
		<polyline clip-path="url(#SVGID_8_)" fill="none" stroke="#FFFFFF" stroke-width="2" stroke-miterlimit="10" points="194.1,233.5 
			224.7,217.9 256.4,234.8 		"/>
		<polyline clip-path="url(#SVGID_8_)" fill="none" stroke="#FFFFFF" stroke-width="2" stroke-miterlimit="10" points="194.1,250 
			224.7,233 256.4,250 		"/>
		<use xlink:href="#SVGID_7_"  overflow="visible" fill="none" stroke="#FFFFFF" stroke-miterlimit="10"/>
	</g>
	<g clip-path="url(#SVGID_2_)">
		<defs>
			<rect id="SVGID_9_" x="130.3" y="-1.2" width="61.7" height="249.9"/>
		</defs>
		<clipPath id="SVGID_10_">
			<use xlink:href="#SVGID_9_"  overflow="visible"/>
		</clipPath>
		<polygon clip-path="url(#SVGID_10_)" fill="#FFFFFF" stroke="#FFFFFF" stroke-miterlimit="10" points="130.3,90.8 161.5,75.7 
			192.6,91 192.6,110.1 161.2,92.5 130.3,108.7 		"/>
		<polygon clip-path="url(#SVGID_10_)" fill="#FFFFFF" stroke="#FFFFFF" stroke-miterlimit="10" points="129.7,215.5 161,200.3 
			192.2,215.7 192.2,234.7 160.7,217.3 129.7,233.4 		"/>
		<polyline clip-path="url(#SVGID_10_)" fill="none" stroke="#FFFFFF" stroke-width="2" stroke-miterlimit="10" points="130.1,15.8 
			161.6,-1.2 194.3,15.8 		"/>
		<polyline clip-path="url(#SVGID_10_)" fill="none" stroke="#FFFFFF" stroke-width="2" stroke-miterlimit="10" points="130.1,31.5 
			161.6,14.6 194.3,31.5 		"/>
		<polyline clip-path="url(#SVGID_10_)" fill="none" stroke="#FFFFFF" stroke-width="2" stroke-miterlimit="10" points="130.1,47.2 
			161.6,30.3 194.3,47.2 		"/>
		<polyline clip-path="url(#SVGID_10_)" fill="none" stroke="#FFFFFF" stroke-width="2" stroke-miterlimit="10" points="130.1,63 
			161.6,46 194.3,63 		"/>
		<polyline clip-path="url(#SVGID_10_)" fill="none" stroke="#FFFFFF" stroke-width="2" stroke-miterlimit="10" points="130.1,78.7 
			161.6,61.8 194.3,78.7 		"/>
		<polyline clip-path="url(#SVGID_10_)" fill="none" stroke="#FFFFFF" stroke-width="2" stroke-miterlimit="10" points="
			130.1,125.3 161.6,108.4 194.3,125.3 		"/>
		<polyline clip-path="url(#SVGID_10_)" fill="none" stroke="#FFFFFF" stroke-width="2" stroke-miterlimit="10" points="130.1,141 
			161.6,124.1 194.3,141 		"/>
		<polyline clip-path="url(#SVGID_10_)" fill="none" stroke="#FFFFFF" stroke-width="2" stroke-miterlimit="10" points="
			130.1,156.8 161.6,139.8 194.3,156.8 		"/>
		<polyline clip-path="url(#SVGID_10_)" fill="none" stroke="#FFFFFF" stroke-width="2" stroke-miterlimit="10" points="
			130.1,172.5 161.6,155.6 194.3,172.5 		"/>
		<polyline clip-path="url(#SVGID_10_)" fill="none" stroke="#FFFFFF" stroke-width="2" stroke-miterlimit="10" points="
			130.1,188.2 161.6,171.3 194.3,188.2 		"/>
		<polyline clip-path="url(#SVGID_10_)" fill="none" stroke="#FFFFFF" stroke-width="2" stroke-miterlimit="10" points="
			130.1,203.4 161.6,186.4 194.3,203.4 		"/>
		<polyline clip-path="url(#SVGID_10_)" fill="none" stroke="#FFFFFF" stroke-width="2" stroke-miterlimit="10" points="
			130.1,249.9 161.6,233 194.3,249.9 		"/>
		<use xlink:href="#SVGID_9_"  overflow="visible" fill="none" stroke="#FFFFFF" stroke-miterlimit="10"/>
	</g>
</g>
</svg>
