<?xml version="1.0" encoding="utf-8"?>
<!-- Generator: Adobe Illustrator 18.0.0, SVG Export Plug-In . SVG Version: 6.00 Build 0)  -->
<!DOCTYPE svg PUBLIC "-//W3C//DTD SVG 1.1//EN" "http://www.w3.org/Graphics/SVG/1.1/DTD/svg11.dtd">
<svg version="1.1" id="Layer_1" xmlns="http://www.w3.org/2000/svg" xmlns:xlink="http://www.w3.org/1999/xlink" x="0px" y="0px"
	 viewBox="0 0 48 48" enable-background="new 0 0 48 48" xml:space="preserve">
<g>
	<path fill="#323232" d="M32.6,20.3L32.6,20.3c-2.1,1.2-4.9,2.5-8.2,3.5c-0.7,0.2-1.2,0.1-1.4,0c-3.3-1.4-5.6-2.5-7.7-3.7
		c0,0,0,0,0,0c-1.3-0.7-1.3,0-1.3,0v8.1c0,1.1,0.9,2,2,2h15.3c1.1,0,2-0.9,2-2v-7.9C33.4,19.8,32.6,20.3,32.6,20.3z"/>
	<path fill="#323232" d="M24,0C10.7,0,0,10.7,0,24c0,13.3,10.7,24,24,24s24-10.7,24-24C48,10.7,37.3,0,24,0z M37.2,31.4
		c0,1.1-0.9,2-2,2H12.8c-1.1,0-2-0.9-2-2V16.6c0-1.1,0.9-2,2-2h22.4c1.1,0,2,0.9,2,2V31.4z"/>
</g>
</svg>
